<svg width="30" height="30" viewBox="0 0 30 30" fill="none" xmlns="http://www.w3.org/2000/svg">
<rect width="30" height="30" rx="4" fill="#F2F2F2"/>
<path d="M15.8086 7C14.0499 7.00856 12.3437 7.6003 10.9573 8.6825C9.57098 9.76471 8.5828 11.2762 8.1476 12.9803L7.61525 12.1752C7.56485 12.0909 7.4979 12.0177 7.41844 11.96C7.33899 11.9023 7.24866 11.8613 7.15292 11.8394C7.05718 11.8175 6.958 11.8153 6.86137 11.8328C6.76474 11.8503 6.67266 11.8872 6.59067 11.9413C6.50869 11.9954 6.43851 12.0655 6.38435 12.1474C6.3302 12.2293 6.2932 12.3214 6.27559 12.418C6.25797 12.5146 6.26011 12.6138 6.28186 12.7095C6.30362 12.8053 6.34455 12.8957 6.40217 12.9752L8.00215 15.3999C8.11329 15.5554 8.27715 15.6652 8.46323 15.709C8.65324 15.7467 8.85046 15.7088 9.01304 15.6035L11.413 13.9868C11.4958 13.9351 11.5673 13.8673 11.6233 13.7875C11.6793 13.7076 11.7186 13.6172 11.739 13.5218C11.7594 13.4264 11.7604 13.3279 11.7419 13.2321C11.7234 13.1363 11.6858 13.0452 11.6314 12.9643C11.577 12.8833 11.5068 12.8141 11.4251 12.7608C11.3434 12.7075 11.2518 12.6712 11.1558 12.654C11.0597 12.6369 10.9612 12.6392 10.8661 12.6609C10.771 12.6826 10.6812 12.7232 10.6021 12.7803L9.51049 13.5163C9.80102 12.3369 10.4172 11.263 11.2887 10.417C12.1602 9.57103 13.252 8.98704 14.4394 8.73169C15.6269 8.47634 16.8622 8.55991 18.0044 8.97286C19.1467 9.38581 20.1498 10.1115 20.8995 11.0672C21.6491 12.0228 22.115 13.17 22.2441 14.3777C22.3731 15.5854 22.1601 16.8051 21.6293 17.8975C21.0985 18.99 20.2713 19.9113 19.2421 20.5563C18.2129 21.2012 17.0232 21.5439 15.8086 21.5452C14.7674 21.5424 13.7423 21.2883 12.8204 20.8043C11.8985 20.3204 11.107 19.621 10.5134 18.7656C10.4602 18.684 10.3912 18.6139 10.3104 18.5594C10.2296 18.505 10.1387 18.4673 10.0431 18.4487C9.94742 18.4301 9.84902 18.4308 9.75369 18.451C9.65837 18.4711 9.56806 18.5102 9.48813 18.5659C9.40819 18.6216 9.34027 18.6928 9.28839 18.7753C9.23651 18.8577 9.20172 18.9498 9.18611 19.0459C9.17049 19.1421 9.17435 19.2404 9.19747 19.3351C9.22058 19.4297 9.26248 19.5188 9.32068 19.5969C10.2858 20.9883 11.6718 22.0334 13.275 22.5786C14.8781 23.1238 16.6139 23.1404 18.2272 22.6259C19.8405 22.1114 21.2462 21.093 22.2377 19.7203C23.2292 18.3477 23.7543 16.6931 23.7357 14.9999C23.7429 12.8886 22.9123 10.8606 21.4262 9.3609C19.9401 7.86117 17.9199 7.01212 15.8086 7Z" fill="black"/>
<path d="M15.7359 10.5999C15.543 10.5999 15.358 10.6765 15.2216 10.8129C15.0852 10.9493 15.0086 11.1343 15.0086 11.3272V14.9999C15.0117 15.1921 15.0879 15.3759 15.2217 15.514L17.4035 17.7154C17.5404 17.8502 17.7245 17.9261 17.9166 17.9271C18.1087 17.9281 18.2936 17.8539 18.4318 17.7205C18.5688 17.5847 18.6461 17.4001 18.6469 17.2073C18.6478 17.0144 18.572 16.8291 18.4362 16.6922L16.4631 14.7009V11.3272C16.4631 11.1343 16.3865 10.9493 16.2501 10.8129C16.1137 10.6765 15.9288 10.5999 15.7359 10.5999Z" fill="black"/>
</svg>
