<svg width="13" height="13" viewBox="0 0 13 13" fill="none" xmlns="http://www.w3.org/2000/svg">
<g id="information 6" clip-path="url(#clip0_1644_206)">
<g id="Group">
<path id="Vector" d="M6.19336 0.5C2.88496 0.5 0.193359 3.19164 0.193359 6.50004C0.193359 9.80844 2.88496 12.5 6.19336 12.5C9.50176 12.5 12.1934 9.80844 12.1934 6.50004C12.1934 3.19164 9.50176 0.5 6.19336 0.5ZM6.19336 11.4091C3.48645 11.4091 1.28427 9.20691 1.28427 6.50004C1.28427 3.79316 3.48645 1.59091 6.19336 1.59091C8.90027 1.59091 11.1025 3.79316 11.1025 6.50004C11.1025 9.20691 8.90023 11.4091 6.19336 11.4091Z" fill="black"/>
<path id="Vector_2" d="M6.19344 3.0459C5.79249 3.0459 5.46631 3.3723 5.46631 3.7735C5.46631 4.17434 5.79249 4.50044 6.19344 4.50044C6.59438 4.50044 6.92056 4.17434 6.92056 3.7735C6.92056 3.3723 6.59438 3.0459 6.19344 3.0459Z" fill="black"/>
<path id="Vector_3" d="M6.1934 5.59082C5.89217 5.59082 5.64795 5.83504 5.64795 6.13627V9.409C5.64795 9.71024 5.89217 9.95446 6.1934 9.95446C6.49464 9.95446 6.73886 9.71024 6.73886 9.409V6.13627C6.73886 5.83504 6.49464 5.59082 6.1934 5.59082Z" fill="black"/>
</g>
</g>
<defs>
<clipPath id="clip0_1644_206">
<rect width="12" height="12" fill="white" transform="translate(0.193359 0.5)"/>
</clipPath>
</defs>
</svg>
